<svg width="147" height="19" viewBox="0 0 147 19" fill="none" xmlns="http://www.w3.org/2000/svg">
<circle cx="120.5" cy="9.5" r="6.5" fill="#AF2F5A"/>
<path d="M146.697 0.252731V18.7382H143.253L135.048 7.10356H134.91V18.7382H130.923V0.252731H134.422L142.562 11.8784H142.728V0.252731H146.697Z" fill="#AF2F5A"/>
<path d="M129.266 9.49549C129.266 11.5113 128.876 13.2263 128.097 14.6404C127.323 16.0545 126.267 17.1346 124.929 17.8808C123.597 18.6209 122.099 18.991 120.435 18.991C118.76 18.991 117.256 18.6179 115.923 17.8717C114.591 17.1256 113.538 16.0454 112.765 14.6314C111.991 13.2173 111.605 11.5053 111.605 9.49549C111.605 7.47965 111.991 5.76469 112.765 4.35059C113.538 2.9365 114.591 1.85938 115.923 1.11924C117.256 0.373081 118.76 0 120.435 0C122.099 0 123.597 0.373081 124.929 1.11924C126.267 1.85938 127.323 2.9365 128.097 4.35059C128.876 5.76469 129.266 7.47965 129.266 9.49549ZM125.224 9.49549C125.224 8.18971 125.024 7.08852 124.625 6.19193C124.232 5.29533 123.677 4.61536 122.959 4.15202C122.24 3.68868 121.399 3.45701 120.435 3.45701C119.472 3.45701 118.631 3.68868 117.912 4.15202C117.194 4.61536 116.636 5.29533 116.236 6.19193C115.844 7.08852 115.647 8.18971 115.647 9.49549C115.647 10.8013 115.844 11.9025 116.236 12.7991C116.636 13.6956 117.194 14.3756 117.912 14.839C118.631 15.3023 119.472 15.534 120.435 15.534C121.399 15.534 122.24 15.3023 122.959 14.839C123.677 14.3756 124.232 13.6956 124.625 12.7991C125.024 11.9025 125.224 10.8013 125.224 9.49549Z" fill="#AF2F5A"/>
<path d="M109.952 0.252731V18.7382H105.965V0.252731H109.952Z" fill="#AF2F5A"/>
<path d="M92.5492 18.7382V0.252731H96.5364V15.5159H104.621V18.7382H92.5492Z" fill="#AF2F5A"/>
<path d="M77.9684 18.7382V0.252731H90.6758V3.47506H81.9556V7.87981H90.022V11.1021H81.9556V15.5159H90.7126V18.7382H77.9684Z" fill="#AF2F5A"/>
<path d="M61.3871 18.7382V0.252731H65.3743V8.40333H65.6229L72.4094 0.252731H77.1884L70.1902 8.52969L77.2713 18.7382H72.5014L67.3356 11.1382L65.3743 13.485V18.7382H61.3871Z" fill="#AF2F5A"/>
<path d="M59.4032 0.252731V18.7382H55.416V0.252731H59.4032Z" fill="#AF2F5A"/>
<path d="M42 18.7382V0.252731H45.9872V15.5159H54.072V18.7382H42Z" fill="#AF2F5A"/>
<path d="M27.7993 5.56912C27.7256 4.84101 27.4095 4.27538 26.8508 3.87221C26.2922 3.46904 25.5341 3.26746 24.5764 3.26746C23.9257 3.26746 23.3763 3.35772 22.9281 3.53824C22.48 3.71275 22.1362 3.95645 21.8968 4.26936C21.6635 4.58226 21.5469 4.93729 21.5469 5.33444C21.5346 5.6654 21.6052 5.95424 21.7587 6.20095C21.9183 6.44766 22.1362 6.66128 22.4125 6.84181C22.6887 7.01631 23.0079 7.16975 23.3701 7.30214C23.7323 7.4285 24.1191 7.53682 24.5304 7.62708L26.2247 8.02423C27.0473 8.20475 27.8024 8.44545 28.4899 8.74632C29.1775 9.04719 29.7729 9.41726 30.2763 9.85653C30.7797 10.2958 31.1695 10.8133 31.4458 11.409C31.7281 12.0048 31.8724 12.6877 31.8785 13.458C31.8724 14.5892 31.5777 15.5701 30.9946 16.4005C30.4175 17.2249 29.5826 17.8657 28.4899 18.323C27.4033 18.7743 26.0927 19 24.558 19C23.0356 19 21.7096 18.7713 20.58 18.314C19.4566 17.8567 18.5788 17.1797 17.9465 16.2831C17.3203 15.3805 16.9919 14.2643 16.9612 12.9344H20.8194C20.8624 13.5542 21.0435 14.0717 21.3627 14.4869C21.6881 14.8961 22.1209 15.206 22.6611 15.4166C23.2074 15.6212 23.8244 15.7235 24.5119 15.7235C25.1872 15.7235 25.7735 15.6272 26.2707 15.4347C26.7741 15.2421 27.1639 14.9743 27.4402 14.6314C27.7164 14.2884 27.8545 13.8942 27.8545 13.4489C27.8545 13.0337 27.7287 12.6847 27.477 12.4019C27.2314 12.1191 26.8692 11.8784 26.3904 11.6798C25.9177 11.4812 25.3376 11.3007 24.6501 11.1382L22.5966 10.6328C21.0067 10.2537 19.7513 9.66097 18.8305 8.85463C17.9096 8.0483 17.4523 6.96215 17.4584 5.5962C17.4523 4.47696 17.7562 3.49913 18.37 2.66271C18.9901 1.82629 19.8403 1.1734 20.9207 0.704039C22.0012 0.23468 23.2289 0 24.604 0C26.0037 0 27.2253 0.23468 28.2689 0.704039C29.3186 1.1734 30.1351 1.82629 30.7183 2.66271C31.3015 3.49913 31.6023 4.46793 31.6207 5.56912H27.7993Z" fill="white"/>
<path d="M6.68519 18.7382H0V0.252731H6.74044C8.63734 0.252731 10.2703 0.622803 11.6392 1.36295C13.0082 2.09707 14.061 3.15313 14.7977 4.53112C15.5405 5.9091 15.9119 7.55788 15.9119 9.47743C15.9119 11.403 15.5405 13.0578 14.7977 14.4418C14.061 15.8258 13.002 16.8879 11.6208 17.628C10.2457 18.3682 8.6005 18.7382 6.68519 18.7382ZM3.98717 15.3895H6.51944C7.69809 15.3895 8.68951 15.185 9.4937 14.7758C10.304 14.3606 10.9118 13.7197 11.3169 12.8532C11.7282 11.9807 11.9339 10.8554 11.9339 9.47743C11.9339 8.11148 11.7282 6.99525 11.3169 6.12874C10.9118 5.26223 10.3071 4.62439 9.50291 4.2152C8.69872 3.80602 7.7073 3.60143 6.52865 3.60143H3.98717V15.3895Z" fill="white"/>
<path d="M36.0885 18.9729C35.4808 18.9729 34.959 18.7623 34.5231 18.3411C34.0934 17.9139 33.8785 17.4024 33.8785 16.8067C33.8785 16.2169 34.0934 15.7115 34.5231 15.2903C34.959 14.869 35.4808 14.6584 36.0885 14.6584C36.6779 14.6584 37.1935 14.869 37.6355 15.2903C38.0775 15.7115 38.2985 16.2169 38.2985 16.8067C38.2985 17.2038 38.1941 17.5679 37.9854 17.8988C37.7828 18.2238 37.5158 18.4855 37.1843 18.6841C36.8528 18.8766 36.4876 18.9729 36.0885 18.9729Z" fill="white"/>
<g clip-path="url(#clip0_1_277)">
<path d="M114 6.05135L118.662 6.88139C118.866 6.96932 118.563 7.50859 118.48 7.65469C117.594 9.21094 115.251 9.23817 114.324 7.70575C114.242 7.571 114 7.01925 114 6.89614V6.05135Z" fill="white"/>
<path d="M127 6V6.79373C127 6.91003 126.77 7.43796 126.696 7.57043C125.674 9.39504 122.875 9.01803 122.306 7.05386L127 6Z" fill="white"/>
<path d="M117.066 10.978C117.82 10.814 117.46 11.9981 118.307 12.0948C119.179 12.1941 119.777 11.5045 120.606 11.5289C121.612 11.5581 122.253 12.6216 123.267 11.89C123.675 11.5958 123.774 10.814 124.34 10.991C124.908 11.1686 124.414 11.9501 124.182 12.2241C123.583 12.9302 122.721 13.1637 121.834 12.8865C121.11 12.661 120.941 12.2219 120.095 12.5169C119.227 12.8193 118.354 13.3183 117.449 12.6806C117.057 12.4046 116.33 11.1379 117.066 10.978H117.066Z" fill="white"/>
<path d="M121.917 10.8985C121.706 11.0951 121.253 11.2917 120.965 11.3206C120.144 11.4026 118.749 10.8319 118.986 9.83928C119.061 9.52326 119.59 9.45575 119.874 9.4322C120.27 9.3993 122.094 9.42029 122.276 9.78963C122.387 10.182 122.208 10.6285 121.918 10.8985H121.917Z" fill="white"/>
</g>
<defs>
<clipPath id="clip0_1_277">
<rect width="13" height="7" fill="white" transform="translate(114 6)"/>
</clipPath>
</defs>
</svg>
